<?xml version="1.0" standalone="no"?>
<!DOCTYPE svg PUBLIC "-//W3C//DTD SVG 1.1//EN" "http://www.w3.org/Graphics/SVG/1.1/DTD/svg11.dtd">
<svg xmlns="http://www.w3.org/2000/svg">
<defs >
<font id="AzeretMono" horiz-adv-x="685" ><font-face
    font-family="Azeret Mono Thin Black"
    units-per-em="1000"
    panose-1="0 0 0 0 0 0 0 0 0 0"
    ascent="937"
    descent="-230"
    alphabetic="0" />
<glyph unicode=" " horiz-adv-x="650" />
<glyph unicode="!" horiz-adv-x="650" d="M244 242L211 557V698H439V557L406 242H244ZM224 0V195H425V0H224Z" />
<glyph unicode="&quot;" horiz-adv-x="650" d="M386 420L360 776H572L546 420H386ZM105 420L79 776H291L265 420H105Z" />
<glyph unicode="#" horiz-adv-x="650" d="M283 0L455 700H594L422 0H283ZM2 112L45 275H578L533 112H2ZM64 0L237 700H376L203 0H64ZM72 397L117 559H648L606 397H72Z" />
<glyph unicode="$" horiz-adv-x="650" d="M219 680V797H433V680H219ZM219 -92V20H433V-92H219ZM330 -12Q231 -12 165 21T66 113T33 250H253Q253 213 269 193T327 172Q353 172 369 182T385 209Q385 230 367 241T318 260T251 274T178 294T112 330T63 392T44 489Q44
557 80 606T180 683T324 710Q401 710 467 684T575 605T619 471H399Q399 489 390 501T365 519T328 526Q307 526 293 518T278 494Q278 475 296 465T345 449T412 436T485 416T551 379T600 316T619 216Q619 146 583 95T481 16T330 -12Z" />
<glyph unicode="%" horiz-adv-x="650" d="M43 0L485 698H607L165 0H43ZM483 -13Q438 -13 403 10T347 72T327 164Q327 216 347 255T402 317T483 340Q529 340 564 318T619 256T639 164Q639 112 619 73T564 10T483 -13ZM483 95Q500 95 510 114T520 164Q520 194 510
213T483 232Q468 232 458 213T448 164Q448 134 458 115T483 95ZM167 358Q121 358 86 381T31 444T11 535Q11 587 31 626T86 688T167 711Q213 711 248 689T303 627T323 535Q323 484 303 444T248 381T167 358ZM167 466Q184 466 194 485T204 535Q204 565 194 584T167
603Q152 603 142 584T132 535Q132 505 142 486T167 466Z" />
<glyph unicode="&amp;" horiz-adv-x="650" d="M245 -12Q178 -12 126 14T44 86T14 192Q14 240 31 277T72 340T120 382Q97 420 89 451T80 516Q80 574 106 617T178 685T286 710Q344 710 387 688T453 625T477 530Q477 491 461 456T418 395T362 352L427 270Q432 292
436 313T444 362H619Q612 295 589 239T530 134L636 0H408L387 27Q356 8 321 -2T245 -12ZM264 137Q276 137 285 140T302 148L211 266Q206 257 203 248T198 230T196 209Q196 175 216 156T264 137ZM276 455Q298 467 307 483T317 521Q317 541 308 554T284 567Q269 567
260 554T251 521Q251 506 255 492T276 455Z" />
<glyph unicode="&apos;" horiz-adv-x="650" d="M245 419L219 775H431L405 419H245Z" />
<glyph unicode="(" horiz-adv-x="650" d="M291 -99Q231 -7 201 94T170 298Q170 402 200 504T291 698H496Q438 610 408 508T377 298Q377 192 407 91T496 -99H291Z" />
<glyph unicode=")" horiz-adv-x="650" d="M359 -99H154Q213 -10 243 91T273 298Q273 406 243 508T154 698H359Q419 606 449 504T480 298Q480 196 450 95T359 -99Z" />
<glyph unicode="*" horiz-adv-x="650" d="M246 295L127 383L218 474L101 502L149 637L248 591V710H401V591L501 637L549 502L433 474L522 383L401 296L325 394L246 295Z" />
<glyph unicode="+" horiz-adv-x="650" d="M63 213V397H587V213H63ZM233 43V568H417V43H233Z" />
<glyph unicode="," horiz-adv-x="650" d="M228 0V195H429V0L335 -190H160L219 -100L325 2L228 0Z" />
<glyph unicode="-" horiz-adv-x="650" d="M131 213V398H518V213H131Z" />
<glyph unicode="." horiz-adv-x="650" d="M225 0V195H426V0H225Z" />
<glyph unicode="/" horiz-adv-x="650" d="M22 -99L410 700H628L240 -99H22Z" />
<glyph unicode="0" horiz-adv-x="650" d="M325 -12Q234 -12 168 33T65 159T28 349Q28 459 64 540T167 665T325 710Q415 710 481 666T584 540T621 349Q621 240 585 159T482 33T325 -12ZM323 170Q356 170 372 213T389 349Q389 441 373 484T323 528Q292 528 276 485T260
349Q260 257 276 214T323 170Z" />
<glyph unicode="1" horiz-adv-x="650" d="M235 0V318L245 465L123 374L34 309V543L278 698H465V0H235ZM34 0V184H616V0H34Z" />
<glyph unicode="2" horiz-adv-x="650" d="M45 0V154Q165 230 238 287T344 389T377 471Q377 496 363 511T323 526Q287 526 271 501T260 438H36Q36 521 71 582T172 676T326 710Q409 710 473 684T573 609T610 491Q610 421 582 368T505 270T392 184H612V0H45Z" />
<glyph unicode="3" horiz-adv-x="650" d="M324 -12Q240 -12 176 18T75 109T38 259H262Q258 232 265 213T287 183T325 172Q348 172 365 187T382 230Q382 249 374 262T349 282T309 289H274V425H311Q330 425 343 432T364 452T372 482Q372 498 360 512T323 526Q297
526 281 510T268 467H44Q45 537 80 591T179 678T333 710Q410 710 468 687T559 621T592 520Q592 484 579 454T542 400T489 362Q526 356 554 336T598 285T615 210Q615 145 580 95T479 16T324 -12Z" />
<glyph unicode="4" horiz-adv-x="650" d="M331 0V136H23V290L267 698H552V310H629V136H552V0H331ZM227 310H331V371L344 522L267 386L227 310Z" />
<glyph unicode="5" horiz-adv-x="650" d="M317 -10Q232 -10 173 16T81 91T44 208H264Q266 193 279 183T315 173Q334 173 348 181T371 205T380 242Q380 271 364 288T322 306Q298 306 284 296T260 271H50L114 698H565V514H293L279 435Q309 457 340 463T409 470Q469
470 515 442T587 363T613 247Q613 162 575 105T471 19T317 -10Z" />
<glyph unicode="6" horiz-adv-x="650" d="M391 456Q453 456 504 430T586 354T617 236Q617 165 580 109T479 20T330 -13Q234 -13 168 27T67 144T32 328Q32 448 74 533T189 664T356 710Q431 710 481 686T560 626T601 553T614 489H400Q397 506 387 519T351 533Q326
533 309 517T282 477T269 426Q299 447 332 451T391 456ZM329 172Q345 172 357 180T376 202T383 234Q383 253 376 267T357 290T329 299Q311 299 298 293T271 275Q270 226 284 199T329 172Z" />
<glyph unicode="7" horiz-adv-x="650" d="M153 0Q163 70 179 134T221 259T283 383T368 515H32V698H628V545Q576 487 536 428T466 303T412 164T371 0H153ZM32 698H232V434H32V698Z" />
<glyph unicode="8" horiz-adv-x="650" d="M324 -12Q240 -12 177 15T78 89T43 196Q43 233 58 266T100 325T161 367H488Q522 351 548 326T590 268T606 201Q606 138 571 90T472 15T324 -12ZM324 168Q340 168 353 174T374 191T382 218Q382 235 373 246T351 263T324
270Q311 270 298 264T276 247T267 218Q267 203 275 192T296 174T324 168ZM324 429Q336 429 348 434T369 452T378 481Q378 505 362 518T324 531Q303 531 287 518T271 481Q271 466 278 454T297 436T324 429ZM169 345Q133 362 107 388T68 446T54 511Q54 572 87 616T182
685T324 710Q405 710 466 686T561 616T595 506Q595 473 580 442T540 386T480 345H169Z" />
<glyph unicode="9" horiz-adv-x="650" d="M259 242Q197 242 146 268T64 344T33 462Q33 533 70 589T171 678T320 711Q416 711 482 671T583 554T618 370Q618 250 576 165T461 34T294 -12Q219 -12 169 12T90 72T49 145T36 209H250Q253 192 263 179T299 165Q324 165
341 181T368 221T381 272Q351 251 318 247T259 242ZM321 526Q305 526 293 518T274 496T267 464Q267 445 274 431T293 408T321 399Q339 399 352 405T379 423Q380 472 366 499T321 526Z" />
<glyph unicode=":" horiz-adv-x="650" d="M225 327V522H426V327H225ZM225 0V195H426V0H225Z" />
<glyph unicode=";" horiz-adv-x="650" d="M221 0V205H431V0L353 -190H178L319 0H221ZM225 326V521H426V326H225Z" />
<glyph unicode="&lt;" horiz-adv-x="650" d="M579 31L65 211V402L579 580V403L273 307L579 209V31Z" />
<glyph unicode="=" horiz-adv-x="650" d="M68 344V528H582V344H68ZM68 75V259H582V75H68Z" />
<glyph unicode="&gt;" horiz-adv-x="650" d="M65 31V209L371 307L65 403V580L579 402V211L65 31Z" />
<glyph unicode="?" horiz-adv-x="650" d="M240 229V244Q240 284 251 312T279 360T315 395T351 423T379 452T390 489Q390 504 384 516T365 535T332 543Q296 543 277 515T260 440H45Q41 522 77 582T180 676T332 710Q419 710 480 685T573 613T605 501Q605 457 592
427T558 375T513 339T468 310T432 281T416 243L415 229H240ZM227 0V195H428V0H227Z" />
<glyph unicode="@" horiz-adv-x="650" d="M343 -178Q232 -178 159 -125T50 26T13 253Q13 391 53 494T166 654T340 711Q429 711 495 663T599 527T637 322Q637 244 622 193T582 111T528 69T471 56H344L342 112Q335 86 320 67T280 47Q252 47 228 74T190 152T175 267Q175
332 189 381T228 457T280 485Q304 485 319 466T342 421L344 477H461V167H472Q489 167 499 200T509 322Q509 407 488 467T428 560T340 592Q279 592 236 551T169 435T145 253Q145 155 170 83T244 -29T359 -69H486L414 -178H343ZM321 209Q332 209 337 222T343 241V291Q343
298 338 311T321 324Q311 324 305 309T299 267Q299 240 305 225T321 209Z" />
<glyph unicode="A" horiz-adv-x="650" d="M109 123V298H552V123H109ZM163 698H485L630 0H395L362 286L319 531L276 286L246 0H20L163 698Z" />
<glyph unicode="B" horiz-adv-x="650" d="M497 365Q536 354 565 331T609 274T625 201Q625 140 595 95T507 25T367 0H40V698H352Q474 698 539 649T604 515Q604 481 591 451T554 398T497 365ZM320 514H269V431H320Q345 431 359 442T374 473Q374 492 359 503T320
514ZM269 184H335Q358 184 373 196T388 228Q388 248 375 260T340 272H269V184Z" />
<glyph unicode="C" horiz-adv-x="650" d="M332 -12Q239 -12 170 33T61 159T22 349Q22 459 63 540T176 665T341 710Q419 710 482 678T585 584T626 438H401Q399 472 383 499T335 526Q308 526 291 506T265 447T256 349Q256 282 266 243T293 188T331 172Q352 172 367
184T393 217T405 264H630Q621 181 587 119T489 22T332 -12Z" />
<glyph unicode="D" horiz-adv-x="650" d="M32 0V698H276Q364 698 430 671T541 595T607 485T630 351Q630 279 608 216T541 104T431 28T276 0H32ZM261 184H277Q307 184 334 202T378 257T396 351Q396 408 379 444T334 497T277 514H261V184Z" />
<glyph unicode="E" horiz-adv-x="650" d="M46 0V698H598V514H275V442H476V267H275V184H602V0H46Z" />
<glyph unicode="F" horiz-adv-x="650" d="M53 0V698H605V514H282V442H483V267H282V0H53Z" />
<glyph unicode="G" horiz-adv-x="650" d="M327 -12Q240 -12 170 31T59 154T18 349Q18 459 58 540T171 665T339 710Q410 710 474 682T580 598T628 463H393Q390 487 377 506T337 526Q304 526 286 504T260 442T252 349Q252 290 261 251T289 192T336 172Q356 172 370
178T398 195V245L338 240L343 405H627V123Q578 59 505 24T327 -12Z" />
<glyph unicode="H" horiz-adv-x="650" d="M388 0V698H617V0H388ZM33 0V698H262V0H33ZM242 267V450H406V267H242Z" />
<glyph unicode="I" horiz-adv-x="650" d="M210 0V698H439V0H210ZM72 698H577V514H72V698ZM72 184H577V0H72V184Z" />
<glyph unicode="J" horiz-adv-x="650" d="M63 0V183H298Q333 183 348 204T363 265V698H592V260Q592 204 580 157T537 74T448 20T299 0H63ZM122 698H577V514H122V698Z" />
<glyph unicode="K" horiz-adv-x="650" d="M22 0V698H251V616L227 426L325 596L390 698H629L251 163V0H22ZM388 0L227 357L421 445L640 0H388Z" />
<glyph unicode="L" horiz-adv-x="650" d="M56 0V698H285V184H599V0H56Z" />
<glyph unicode="M" horiz-adv-x="650" d="M16 0L43 698H299L321 439L331 286L339 439L359 698H609L636 0H453V299L450 510L428 299L394 0H253L222 299L198 516L197 299L194 0H16Z" />
<glyph unicode="N" horiz-adv-x="650" d="M41 0V698H300L429 268L408 498V698H610V0H351L220 413L243 201V0H41Z" />
<glyph unicode="O" horiz-adv-x="650" d="M327 -12Q233 -12 165 33T58 159T20 350Q20 459 58 540T164 665T326 710Q420 710 488 666T594 540T632 350Q632 240 595 159T489 33T327 -12ZM326 172Q353 172 370 194T394 256T402 349Q402 403 395 442T370 504T326 526Q299
526 282 504T258 443T250 350Q250 296 257 256T282 194T326 172Z" />
<glyph unicode="P" horiz-adv-x="650" d="M207 200V384H307Q341 384 361 402T381 452Q381 480 361 497T307 514H207V698H307Q400 698 469 668T576 582T614 452Q614 376 576 319T469 231T307 200H207ZM43 0V698H272V0H43Z" />
<glyph unicode="Q" horiz-adv-x="650" d="M316 -12Q222 -12 156 30T55 153T20 349Q20 456 57 537T161 663T315 709Q410 709 475 668T575 549T610 359Q610 316 600 272T572 190T534 126L619 163L655 174L629 -12H316ZM315 172Q339 172 352 194T372 257T378 349Q378
402 372 441T353 503T315 526Q291 526 277 504T257 442T251 349Q251 297 257 257T277 195T315 172Z" />
<glyph unicode="R" horiz-adv-x="650" d="M207 227V410H327Q345 410 357 417T376 438T383 465Q383 478 376 489T357 507T326 514H207V698H336Q420 698 483 670T582 590T617 465Q617 423 596 381T537 304T444 248T322 227H207ZM41 0V698H270V0H41ZM394 0Q394 42
384 87T352 173T299 245T223 289L442 338Q499 310 535 270T592 183T621 89T631 0H394Z" />
<glyph unicode="S" horiz-adv-x="650" d="M330 -12Q231 -12 165 21T66 113T33 250H253Q253 213 269 193T327 172Q353 172 369 182T385 209Q385 230 367 241T318 260T251 274T178 294T112 330T63 392T44 489Q44 557 80 606T180 683T324 710Q401 710 467 684T575
605T619 471H399Q399 489 390 501T365 519T328 526Q307 526 293 518T278 494Q278 475 296 465T345 449T412 436T485 416T551 379T600 316T619 216Q619 146 583 95T481 16T330 -12Z" />
<glyph unicode="T" horiz-adv-x="650" d="M211 0V514H29V698H622V514H440V0H211Z" />
<glyph unicode="U" horiz-adv-x="650" d="M326 -12Q229 -12 162 21T60 116T25 263V698H254V253Q254 228 262 210T287 182T325 172Q348 172 363 181T387 209T396 253V698H625V263Q625 178 590 116T489 21T326 -12Z" />
<glyph unicode="V" horiz-adv-x="650" d="M164 0L21 698H245L307 342L326 167L345 342L408 698H631L486 0H164Z" />
<glyph unicode="W" horiz-adv-x="650" d="M57 0L10 698H194L203 434L208 195L231 434L255 698H397L423 434L450 195L453 434L464 698H640L589 0H349L339 156L323 333L312 156L302 0H57Z" />
<glyph unicode="X" horiz-adv-x="650" d="M16 0L151 356L17 698H262L304 572L327 444L355 571L399 698H631L496 360L635 0H400L360 106L325 216L292 106L254 0H16Z" />
<glyph unicode="Y" horiz-adv-x="650" d="M207 0V281L11 698H236L292 573L327 421L362 574L417 698H638L436 281V0H207Z" />
<glyph unicode="Z" horiz-adv-x="650" d="M31 0V154L233 410L347 514H195H41V698H618V544L407 286L292 184H444H618V0H31Z" />
<glyph unicode="[" horiz-adv-x="650" d="M162 -99V698H377V-99H162ZM238 -99V64H502V-99H238ZM238 535V698H502V535H238Z" />
<glyph unicode="\" horiz-adv-x="650" d="M628 -99H410L22 700H240L628 -99Z" />
<glyph unicode="]" horiz-adv-x="650" d="M488 -99H273V698H488V-99ZM412 -99H148V64H412V-99ZM412 535H148V698H412V535Z" />
<glyph unicode="^" horiz-adv-x="650" d="M54 325L246 698H403L596 325H401L325 503L248 325H54Z" />
<glyph unicode="_" horiz-adv-x="650" d="M35 -185V0H615V-185H35Z" />
<glyph unicode="`" horiz-adv-x="650" d="M450 616H286L168 789H365L450 616Z" />
<glyph unicode="a" horiz-adv-x="650" d="M387 0L381 73V374Q381 399 363 413T315 428Q284 428 266 417T245 383H39Q45 443 80 486T177 552T325 575Q405 575 466 550T563 477T598 364V0H387ZM236 -12Q185 -12 144 9T78 69T53 159Q53 248 116 299T293 350H399L396
216L301 213Q281 212 270 203T259 180Q259 165 270 156T301 147Q330 147 353 157T389 186L408 73Q381 31 340 10T236 -12Z" />
<glyph unicode="b" horiz-adv-x="650" d="M396 575Q465 575 517 538T598 435T627 282Q627 196 598 130T517 26T396 -12Q355 -12 319 3T253 46L250 0H39V740H255V520Q284 546 320 560T396 575ZM328 163Q353 163 371 178T400 219T411 282Q411 318 401 344T372 385T328
400Q303 400 284 383T255 336V228Q264 198 283 181T328 163Z" />
<glyph unicode="c" horiz-adv-x="650" d="M326 -12Q234 -12 170 23T72 123T38 281Q38 372 74 437T177 539T333 575Q419 575 481 544T577 456T612 323H397Q393 366 378 383T333 401Q310 401 292 388T264 349T254 281Q254 214 275 186T326 158Q346 158 361 166T387
191T400 233H615Q611 159 575 104T476 19T326 -12Z" />
<glyph unicode="d" horiz-adv-x="650" d="M254 575Q293 575 330 561T395 520V740H611V0H400L397 46Q369 18 332 3T254 -12Q185 -12 133 25T52 129T23 282Q23 369 52 435T133 538T254 575ZM322 163Q347 163 366 180T395 228V336Q386 366 367 383T322 400Q297 400
279 386T250 345T239 282Q239 246 249 220T278 178T322 163Z" />
<glyph unicode="e" horiz-adv-x="650" d="M328 -12Q235 -12 169 23T67 123T32 281Q32 371 68 437T172 539T331 575Q489 575 559 488T616 240H198L200 364L397 365Q396 390 379 407T335 425Q283 425 266 388T248 271Q248 234 256 209T284 171T336 158Q358 158 378
169T402 198H615Q607 103 531 46T328 -12Z" />
<glyph unicode="f" horiz-adv-x="650" d="M183 0V608Q183 678 214 730T301 811T427 840H603V668H459Q441 668 428 661T407 640T399 608V0H183ZM73 391V563H539V391H73ZM58 0V172H593V0H58Z" />
<glyph unicode="g" horiz-adv-x="650" d="M399 523L402 563H614V52Q614 -71 535 -130T296 -190Q224 -190 164 -171T66 -106T21 13H246Q249 -11 264 -21T316 -31Q355 -31 376 -11T397 52V98Q371 70 338 58T267 45Q196 45 142 78T57 170T27 306Q27 387 57 447T141
541T267 575Q304 575 338 562T399 523ZM322 201Q347 201 367 218T397 265V357Q388 386 368 403T322 420Q294 420 276 407T249 368T240 310Q240 278 249 254T276 215T322 201Z" />
<glyph unicode="h" horiz-adv-x="650" d="M395 0V334Q395 360 385 376T349 392Q321 392 296 372T234 308L220 464Q264 523 312 549T416 575Q481 575 524 549T589 476T611 361V0H395ZM42 0V741H258V0H42Z" />
<glyph unicode="i" horiz-adv-x="650" d="M237 0V563H453V0H237ZM57 0V172H605V0H57ZM127 391V563H345V391H127ZM236 616V784H454V616H236Z" />
<glyph unicode="j" horiz-adv-x="650" d="M553 563V16Q553 -43 527 -86T452 -154T339 -178H77V-6H297Q315 -6 326 5T337 36V563H553ZM227 391V563H365V391H227ZM334 616V784H552V616H334Z" />
<glyph unicode="k" horiz-adv-x="650" d="M40 0V740H256V572L236 385L350 536L375 563H630L256 201V0H40ZM397 0L245 322L433 411L636 0H397Z" />
<glyph unicode="l" horiz-adv-x="650" d="M217 0V740H433V0H217ZM47 0V172H605V0H47ZM107 568V740H325V568H107Z" />
<glyph unicode="m" horiz-adv-x="650" d="M461 0V366Q461 385 454 393T436 402Q417 402 406 374T382 277L371 378Q361 467 396 521T497 575Q551 575 584 535T617 414V0H461ZM32 0V563H182L188 465V0H32ZM247 0V366Q247 385 240 393T222 402Q202 402 193 375T171
277L173 385Q167 443 183 485T229 551T292 575Q342 575 372 531T403 416V0H247Z" />
<glyph unicode="n" horiz-adv-x="650" d="M395 0V334Q395 360 385 376T349 392Q321 392 296 372T234 309L220 464Q264 523 312 549T416 575Q481 575 524 550T589 476T611 362V0H395ZM42 0V563H253L258 491V0H42Z" />
<glyph unicode="o" horiz-adv-x="650" d="M325 -12Q235 -12 169 23T68 124T32 281Q32 373 67 439T169 540T325 575Q462 575 539 497T617 281Q617 190 582 125T482 24T325 -12ZM325 160Q360 160 381 191T402 281Q402 343 381 373T325 403Q290 403 269 373T247 281Q247
222 268 191T325 160Z" />
<glyph unicode="p" horiz-adv-x="650" d="M396 575Q467 575 520 538T603 435T633 281Q633 195 604 129T521 26T396 -12Q355 -12 317 3T250 44V-179H34V563H245L248 517Q278 545 316 560T396 575ZM329 163Q356 163 376 178T407 219T418 281Q418 317 407 344T376
385T329 400Q303 400 282 383T250 336V228Q260 198 281 181T329 163Z" />
<glyph unicode="q" horiz-adv-x="650" d="M254 575Q295 575 333 560T402 517L405 563H616V-179H400V44Q371 18 333 3T254 -12Q183 -12 130 25T47 129T17 281Q17 368 46 434T129 538T254 575ZM321 163Q347 163 368 180T400 228V336Q390 365 369 382T321 400Q294
400 274 386T243 344T232 281Q232 246 243 220T274 178T321 163Z" />
<glyph unicode="r" horiz-adv-x="650" d="M388 247V328Q388 361 378 379T340 397Q320 397 293 379T237 320L219 462Q246 496 271 521T328 561T403 575Q510 575 557 516T604 328V247H388ZM42 0V563H253L258 490V0H42Z" />
<glyph unicode="s" horiz-adv-x="650" d="M333 -12Q250 -12 188 11T90 79T55 185H243Q243 159 265 147T327 134Q354 134 372 142T390 166Q390 182 373 190T327 204T264 216T195 233T132 261T86 310T68 387Q68 444 99 486T189 551T325 575Q440 575 507 524T580
387H392Q390 407 374 418T322 429Q296 429 283 421T270 401Q270 386 287 379T333 368T396 358T465 343T528 314T574 264T592 183Q592 92 522 40T333 -12Z" />
<glyph unicode="t" horiz-adv-x="650" d="M366 0Q302 0 253 22T175 93T147 215V674L363 760V233Q363 202 373 190T405 175T455 172H587V0H366ZM37 391V563H503V391H37Z" />
<glyph unicode="u" horiz-adv-x="650" d="M255 563V229Q255 203 265 187T301 171Q329 171 354 191T416 254L430 99Q386 40 338 14T234 -12Q169 -12 126 13T61 87T39 201V563H255ZM608 563V0H397L392 72V563H608Z" />
<glyph unicode="v" horiz-adv-x="650" d="M197 0L9 563H238L299 334L326 181L356 334L415 563H638L451 0H197Z" />
<glyph unicode="w" horiz-adv-x="650" d="M85 0L7 563H179L205 282L210 174L215 282L246 563H406L442 291L448 174L454 291L479 563H642L568 0H375L331 289L325 405L318 289L276 0H85Z" />
<glyph unicode="x" horiz-adv-x="650" d="M458 284L632 0H393L355 68L327 152L297 68L258 0H18L194 284L23 563H261L294 505L328 417L359 503L393 563H624L458 284Z" />
<glyph unicode="y" horiz-adv-x="650" d="M288 413L325 269L364 412L417 563H640L415 -1Q388 -68 343 -109T241 -170T118 -190H12V-16H100Q131 -16 150 -3T182 29T201 63L205 71L11 563H234L288 413Z" />
<glyph unicode="z" horiz-adv-x="650" d="M67 0V156L236 330L308 389H157H76V563H583V410L419 242L330 174H491H583V0H67Z" />
<glyph unicode="{" horiz-adv-x="650" d="M402 -99Q335 -99 290 -76T221 -8T198 103V199Q198 219 175 226T129 234V369Q153 369 175 378T198 405V496Q198 563 221 607T289 675T402 698H512V535H477Q446 535 430 519T413 471V408Q413 351 374 322T263 282L265 325Q329
312 371 284T413 196V128Q413 97 429 81T477 64H512V-99H402Z" />
<glyph unicode="|" horiz-adv-x="650" d="M212 -190V741H438V-190H212Z" />
<glyph unicode="}" horiz-adv-x="650" d="M248 -99H138V64H173Q205 64 221 80T237 128V196Q237 255 279 283T385 325L387 282Q316 293 277 322T237 408V471Q237 503 221 519T173 535H138V698H248Q315 698 360 675T429 608T452 496V405Q452 388 474 379T521 369V234Q498
234 475 227T452 199V103Q452 37 429 -8T361 -76T248 -99Z" />
<glyph unicode="~" horiz-adv-x="650" d="M421 184Q385 184 359 194T314 216T279 239T249 249Q234 249 226 235T215 188H32Q31 265 56 318T126 399T230 427Q267 427 293 418T339 395T373 373T402 363Q417 363 424 377T435 422H619Q619 349 594 296T525 213T421 184Z" />
<glyph unicode="&#xa0;" horiz-adv-x="650" />
<glyph unicode="&#xa1;" horiz-adv-x="650" d="M219 563H430V358H219V563ZM406 321L439 6V-135H211V6L244 321H406Z" />
<glyph unicode="&#xa2;" horiz-adv-x="650" d="M230 527V658H444V527H230ZM230 -94V28H444V-94H230ZM332 -12Q240 -12 176 23T78 123T44 281Q44 372 80 437T183 539T339 575Q425 575 487 544T583 456T618 323H403Q399 366 384 383T339 401Q316 401 298 388T270
349T260 281Q260 214 281 186T332 158Q352 158 367 166T393 191T406 233H621Q617 159 581 104T482 19T332 -12Z" />
<glyph unicode="&#xa3;" horiz-adv-x="650" d="M56 0V184Q101 208 119 230T137 278Q137 299 128 323T107 373T86 429T77 489Q77 551 107 601T194 680T336 710Q459 710 527 654T594 469H379Q379 494 371 511T338 528Q325 528 316 523T302 507T297 482Q297 462 306
439T326 390T347 340T356 291Q356 264 339 235T289 179T210 132L217 184H581V0H56ZM45 272V392H508V272H45Z" />
<glyph unicode="&#xa4;" horiz-adv-x="650" d="M133 446L11 590L144 715L277 559L133 446ZM144 -42L11 83L133 227L277 114L144 -42ZM507 -42L374 114L518 227L640 83L507 -42ZM518 446L374 559L507 715L640 590L518 446ZM329 24Q250 24 187 65T88 176T51 336Q51
424 87 494T187 606T329 648Q409 648 472 607T571 495T607 336Q607 248 571 177T472 65T329 24ZM328 188Q360 188 384 206T421 258T434 336Q434 381 421 414T384 466T328 485Q297 485 274 467T237 415T224 336Q224 291 237 258T273 207T328 188Z" />
<glyph unicode="&#xa5;" horiz-adv-x="650" d="M53 252V372H591V252H53ZM207 0V281L11 698H236L292 573L327 421L362 574L417 698H638L436 281V0H207Z" />
<glyph unicode="&#xa6;" horiz-adv-x="650" d="M212 361V741H438V361H212ZM212 -190V190H438V-190H212Z" />
<glyph unicode="&#xa7;" horiz-adv-x="650" d="M327 -190Q230 -190 165 -160T68 -77T38 43H260Q257 14 273 -4T328 -23Q346 -23 356 -19T372 -6T377 12Q377 27 359 35T312 50T247 64T176 83T112 114T64 164T46 239Q46 276 63 309T111 362Q77 390 62 425T47 504Q47
566 81 612T177 684T320 710Q405 710 469 682T572 604T612 487H386Q385 512 374 523T348 539T325 543Q309 543 295 534T280 507Q280 489 298 480T345 464T410 451T481 432T545 397T593 338T611 245Q611 214 599 184T561 130Q584 108 597 80T611 11Q611 -44 576
-90T477 -163T327 -190ZM390 218Q393 223 394 228T396 237Q396 248 389 255T370 267T343 275T311 283T277 292Q273 285 272 280T270 269Q270 259 278 252T299 241T328 232T360 225T390 218Z" />
<glyph unicode="&#xa8;" horiz-adv-x="650" d="M418 624V782H606V624H418ZM164 624V782H352V624H164Z" />
<glyph unicode="&#xa9;" horiz-adv-x="650" d="M330 167Q283 167 248 190T194 256T175 356Q175 413 194 454T248 517T330 539Q392 538 430 495T469 380H370Q369 408 358 424T328 441Q307 441 294 418T281 357Q281 314 294 289T329 263Q347 263 358 280T371 326H470Q466
254 428 211T330 167ZM325 -12Q237 -12 168 34T60 161T21 348Q21 454 60 535T168 663T325 710Q414 710 483 664T591 536T630 348Q630 243 591 162T483 34T325 -12ZM323 74Q382 74 427 109T499 206T525 348Q525 429 499 491T428 588T323 624Q266 624 221 589T151
491T125 348Q125 268 150 206T221 109T323 74Z" />
<glyph unicode="&#xaa;" horiz-adv-x="650" d="M363 319L361 387V571Q361 589 350 598T319 608Q299 608 287 600T272 577H130Q138 639 190 674T328 709Q411 709 458 670T506 563V319H363ZM270 312Q236 312 207 325T159 365T140 431Q140 498 188 530T309 562H371V464L307
463Q295 463 289 458T282 444Q282 435 288 429T308 422Q346 422 363 447T388 524L405 442Q404 390 385 362T335 323T270 312Z" />
<glyph unicode="&#xab;" horiz-adv-x="650" d="M151 58L6 278L151 496H353L202 278L353 58H151ZM433 58L288 278L433 496H635L484 278L635 58H433Z" />
<glyph unicode="&#xac;" horiz-adv-x="650" d="M368 105V397H582V105H368ZM68 213V397H582V213H68Z" />
<glyph unicode="&#xad;" horiz-adv-x="650" d="M131 213V398H518V213H131Z" />
<glyph unicode="&#xae;" horiz-adv-x="650" d="M282 465V525H329Q339 525 345 531T352 547Q352 556 346 561T330 566H282V625H332Q378 625 403 606T428 547Q428 511 399 488T332 465H282ZM236 402V625H312V402H236ZM354 402Q354 414 351 429T337 459T301 478L366
501Q394 483 411 460T434 402H354ZM325 283Q254 283 200 313T115 395T84 512Q84 576 114 628T199 711T325 742Q397 742 451 711T536 628T566 512Q566 448 536 396T452 314T325 283ZM324 346Q373 346 411 366T471 424T493 512Q493 563 471 600T411 658T324 679Q276
679 239 659T180 601T158 512Q158 462 179 425T238 367T324 346Z" />
<glyph unicode="&#xaf;" horiz-adv-x="650" d="M214 635V772H606V635H214Z" />
<glyph unicode="&#xb0;" horiz-adv-x="650" d="M325 340Q265 340 220 363T149 429T124 525Q124 580 149 621T219 686T325 710Q386 710 431 687T501 622T526 525Q526 471 501 429T431 364T325 340ZM325 463Q349 463 362 479T375 525Q375 555 362 571T325 588Q303
588 290 572T278 525Q277 496 290 480T325 463Z" />
<glyph unicode="&#xb1;" horiz-adv-x="650" d="M63 351V534H587V351H63ZM232 221V666H417V221H232ZM68 0V184H582V0H68Z" />
<glyph unicode="&#xb2;" horiz-adv-x="650" d="M146 300V402Q223 452 269 487T335 551T356 604Q356 618 348 627T325 636Q307 636 296 621T285 581H138Q138 660 188 707T326 755Q411 755 459 715T508 603Q508 569 492 536T446 474T373 420H510V300H146Z" />
<glyph unicode="&#xb3;" horiz-adv-x="650" d="M328 291Q275 291 231 311T162 370T137 466H284Q284 441 295 427T326 413Q341 413 349 421T358 443Q358 460 347 469T315 478H295V575H316Q332 575 341 582T350 606Q350 617 343 625T321 633Q305 633 297 624T288
598H141Q141 645 165 680T231 734T326 754Q403 754 452 720T501 629Q501 599 486 573T440 533Q474 526 495 499T516 433Q516 371 465 331T328 291Z" />
<glyph unicode="&#xb4;" horiz-adv-x="650" d="M324 616L409 789H606L488 616H324Z" />
<glyph unicode="&#xb5;" horiz-adv-x="650" d="M42 -190V319H257V72L233 53V-190H42ZM257 563V229Q257 204 267 188T303 171Q332 171 357 191T418 254L432 99Q388 40 340 14T236 -12Q171 -12 128 14T63 87T41 201V563H257ZM610 563V0H399L394 72V563H610Z" />
<glyph unicode="&#xb6;" horiz-adv-x="650" d="M234 -190V221Q171 221 124 250T50 334T24 460Q24 532 50 585T123 668T234 698H390V-190H234ZM470 -190V698H626V-190H470Z" />
<glyph unicode="&#xb7;" horiz-adv-x="650" d="M225 191V386H426V191H225Z" />
<glyph unicode="&#xb8;" horiz-adv-x="650" d="M454 -223Q435 -223 408 -219T352 -206V-129Q366 -133 390 -138T432 -143Q445 -143 455 -138T465 -125Q465 -118 458 -114T437 -109Q427 -109 417 -110T398 -115L373 -70L437 33L523 7L491 -40Q493 -40 495 -40T498
-40Q531 -40 555 -50T593 -78T606 -122Q606 -160 584 -182T528 -213T454 -223Z" />
<glyph unicode="&#xb9;" horiz-adv-x="650" d="M283 300V595L134 491V638L297 748H433V300H283ZM134 420H547V300H134V420Z" />
<glyph unicode="&#xba;" horiz-adv-x="650" d="M326 315Q236 315 185 367T134 512Q134 604 185 656T326 709Q415 709 465 657T516 512Q516 419 466 367T326 315ZM326 422Q349 422 362 444T376 512Q376 556 363 578T326 600Q303 600 289 578T275 512Q275 466 289
444T326 422Z" />
<glyph unicode="&#xbb;" horiz-adv-x="650" d="M499 58H297L448 278L297 496H499L644 278L499 58ZM217 58H15L166 278L15 496H217L362 278L217 58Z" />
<glyph unicode="&#xbc;" horiz-adv-x="1300" d="M243 250V545L94 441V588L257 698H393V250H243ZM94 370H507V250H94V370ZM369 0L809 698H971L529 0H369ZM945 0V83H740V204L910 448H1095V203H1174V83H1095V0H945ZM879 203H945V307L879 203Z" />
<glyph unicode="&#xbd;" horiz-adv-x="1300" d="M243 250V545L94 441V588L257 698H393V250H243ZM94 370H507V250H94V370ZM379 0L819 698H981L539 0H379ZM816 0V102Q893 152 939 187T1005 251T1026 304Q1026 318 1018 327T995 336Q977 336 966 321T955 281H808Q808
360 858 407T996 455Q1081 455 1129 415T1178 303Q1178 269 1162 236T1116 174T1043 120H1180V0H816Z" />
<glyph unicode="&#xbe;" horiz-adv-x="1300" d="M308 241Q255 241 211 261T142 320T117 416H264Q264 391 275 377T306 363Q321 363 329 371T338 393Q338 410 327 419T295 428H275V525H296Q312 525 321 532T330 556Q330 567 323 575T301 583Q285 583 277 574T268
548H121Q121 595 145 630T211 684T306 704Q383 704 432 670T481 579Q481 549 466 523T420 483Q454 476 475 449T496 383Q496 321 445 281T308 241ZM349 0L789 698H951L509 0H349ZM945 0V83H740V204L910 448H1095V203H1174V83H1095V0H945ZM879 203H945V307L879 203Z"
/>
<glyph unicode="&#xbf;" horiz-adv-x="650" d="M410 335V320Q410 280 399 252T371 204T335 169T299 141T271 112T260 75Q260 60 266 48T285 29T318 21Q354 21 373 49T390 124H605Q609 42 573 -18T470 -112T318 -146Q231 -146 170 -121T77 -49T45 63Q45 107 58
137T92 189T137 225T182 254T218 283T234 321L235 335H410ZM423 564V369H222V564H423Z" />
<glyph unicode="&#xc0;" horiz-adv-x="650" d="M109 123V298H552V123H109ZM163 698H485L630 0H395L362 286L319 531L276 286L246 0H20L163 698ZM428 751H264L146 924H343L428 751Z" />
<glyph unicode="&#xc1;" horiz-adv-x="650" d="M109 123V298H552V123H109ZM163 698H485L630 0H395L362 286L319 531L276 286L246 0H20L163 698ZM226 750L311 923H508L390 750H226Z" />
<glyph unicode="&#xc2;" horiz-adv-x="650" d="M109 123V298H552V123H109ZM163 698H485L630 0H395L362 286L319 531L276 286L246 0H20L163 698ZM86 750L202 923H436L552 750H358L319 828L281 750H86Z" />
<glyph unicode="&#xc3;" horiz-adv-x="650" d="M109 123V298H552V123H109ZM163 698H485L630 0H395L362 286L319 531L276 286L246 0H20L163 698ZM233 741L84 764Q86 840 119 884T216 929Q245 929 267 924T308 913T340 901T367 896Q381 896 390 906T401 935L553
913Q549 837 516 793T417 748Q383 748 355 757T305 774T264 783Q251 783 243 772T233 741Z" />
<glyph unicode="&#xc4;" horiz-adv-x="650" d="M109 123V298H552V123H109ZM163 698H485L630 0H395L362 286L319 531L276 286L246 0H20L163 698ZM351 758V916H539V758H351ZM97 758V916H285V758H97Z" />
<glyph unicode="&#xc5;" horiz-adv-x="650" d="M109 123V298H552V123H109ZM163 698H485L630 0H395L362 286L319 531L276 286L246 0H20L163 698ZM318 721Q258 721 222 755T185 845Q185 900 222 933T318 967Q379 967 416 934T453 845Q453 789 417 755T318 721ZM319
805Q337 805 348 816T359 845Q359 861 348 872T319 883Q301 883 290 872T279 845Q279 828 290 817T319 805Z" />
<glyph unicode="&#xc6;" horiz-adv-x="650" d="M6 0L210 698H384L196 0H6ZM181 106V290H355V106H181ZM337 0V698H636V514H516V442H614V267H516V184H640V0H337Z" />
<glyph unicode="&#xc7;" horiz-adv-x="650" d="M332 -12Q239 -12 170 33T61 159T22 349Q22 459 63 540T176 665T341 710Q419 710 482 678T585 584T626 438H401Q399 472 383 499T335 526Q308 526 291 506T265 447T256 349Q256 282 266 243T293 188T331 172Q352
172 367 184T393 217T405 264H630Q621 181 587 119T489 22T332 -12ZM331 -223Q312 -223 285 -219T229 -206V-129Q243 -133 267 -138T309 -143Q322 -143 332 -138T342 -125Q342 -118 335 -114T314 -109Q304 -109 294 -110T275 -115L250 -70L314 33L400 7L368 -40Q370
-40 372 -40T375 -40Q408 -40 432 -50T470 -78T483 -122Q483 -160 461 -182T405 -213T331 -223Z" />
<glyph unicode="&#xc8;" horiz-adv-x="650" d="M46 0V698H598V514H275V442H476V267H275V184H602V0H46ZM427 752H263L145 925H342L427 752Z" />
<glyph unicode="&#xc9;" horiz-adv-x="650" d="M46 0V698H598V514H275V442H476V267H275V184H602V0H46ZM225 751L310 924H507L389 751H225Z" />
<glyph unicode="&#xca;" horiz-adv-x="650" d="M46 0V698H598V514H275V442H476V267H275V184H602V0H46ZM85 751L201 924H435L551 751H357L318 829L280 751H85Z" />
<glyph unicode="&#xcb;" horiz-adv-x="650" d="M46 0V698H598V514H275V442H476V267H275V184H602V0H46ZM350 759V917H538V759H350ZM96 759V917H284V759H96Z" />
<glyph unicode="&#xcc;" horiz-adv-x="650" d="M210 0V698H439V0H210ZM72 698H577V514H72V698ZM72 184H577V0H72V184ZM435 752H271L153 925H350L435 752Z" />
<glyph unicode="&#xcd;" horiz-adv-x="650" d="M210 0V698H439V0H210ZM72 698H577V514H72V698ZM72 184H577V0H72V184ZM233 751L318 924H515L397 751H233Z" />
<glyph unicode="&#xce;" horiz-adv-x="650" d="M210 0V698H439V0H210ZM72 698H577V514H72V698ZM72 184H577V0H72V184ZM93 751L209 924H443L559 751H365L326 829L288 751H93Z" />
<glyph unicode="&#xcf;" horiz-adv-x="650" d="M210 0V698H439V0H210ZM72 698H577V514H72V698ZM72 184H577V0H72V184ZM358 759V917H546V759H358ZM104 759V917H292V759H104Z" />
<glyph unicode="&#xd0;" horiz-adv-x="650" d="M1 281V417H353V281H1ZM32 0V698H276Q364 698 430 671T541 595T607 485T630 351Q630 279 608 216T541 104T431 28T276 0H32ZM261 184H277Q307 184 334 202T378 257T396 351Q396 408 379 444T334 497T277 514H261V184Z" />
<glyph unicode="&#xd1;" horiz-adv-x="650" d="M41 0V698H300L429 268L408 498V698H610V0H351L220 413L243 201V0H41ZM245 742L96 765Q98 841 131 885T228 930Q257 930 279 925T320 914T352 902T379 897Q393 897 402 907T413 936L565 914Q561 838 528 794T429
749Q395 749 367 758T317 775T276 784Q263 784 255 773T245 742Z" />
<glyph unicode="&#xd2;" horiz-adv-x="650" d="M327 -12Q233 -12 165 33T58 159T20 350Q20 459 58 540T164 665T326 710Q420 710 488 666T594 540T632 350Q632 240 595 159T489 33T327 -12ZM326 172Q353 172 370 194T394 256T402 349Q402 403 395 442T370 504T326
526Q299 526 282 504T258 443T250 350Q250 296 257 256T282 194T326 172ZM437 753H273L155 926H352L437 753Z" />
<glyph unicode="&#xd3;" horiz-adv-x="650" d="M327 -12Q233 -12 165 33T58 159T20 350Q20 459 58 540T164 665T326 710Q420 710 488 666T594 540T632 350Q632 240 595 159T489 33T327 -12ZM326 172Q353 172 370 194T394 256T402 349Q402 403 395 442T370 504T326
526Q299 526 282 504T258 443T250 350Q250 296 257 256T282 194T326 172ZM235 752L320 925H517L399 752H235Z" />
<glyph unicode="&#xd4;" horiz-adv-x="650" d="M327 -12Q233 -12 165 33T58 159T20 350Q20 459 58 540T164 665T326 710Q420 710 488 666T594 540T632 350Q632 240 595 159T489 33T327 -12ZM326 172Q353 172 370 194T394 256T402 349Q402 403 395 442T370 504T326
526Q299 526 282 504T258 443T250 350Q250 296 257 256T282 194T326 172ZM95 752L211 925H445L561 752H367L328 830L290 752H95Z" />
<glyph unicode="&#xd5;" horiz-adv-x="650" d="M327 -12Q233 -12 165 33T58 159T20 350Q20 459 58 540T164 665T326 710Q420 710 488 666T594 540T632 350Q632 240 595 159T489 33T327 -12ZM326 172Q353 172 370 194T394 256T402 349Q402 403 395 442T370 504T326
526Q299 526 282 504T258 443T250 350Q250 296 257 256T282 194T326 172ZM242 743L93 766Q95 842 128 886T225 931Q254 931 276 926T317 915T349 903T376 898Q390 898 399 908T410 937L562 915Q558 839 525 795T426 750Q392 750 364 759T314 776T273 785Q260 785
252 774T242 743Z" />
<glyph unicode="&#xd6;" horiz-adv-x="650" d="M327 -12Q233 -12 165 33T58 159T20 350Q20 459 58 540T164 665T326 710Q420 710 488 666T594 540T632 350Q632 240 595 159T489 33T327 -12ZM326 172Q353 172 370 194T394 256T402 349Q402 403 395 442T370 504T326
526Q299 526 282 504T258 443T250 350Q250 296 257 256T282 194T326 172ZM360 760V918H548V760H360ZM106 760V918H294V760H106Z" />
<glyph unicode="&#xd7;" horiz-adv-x="650" d="M191 46L70 167L458 558L579 436L191 46ZM458 46L70 436L191 558L579 167L458 46Z" />
<glyph unicode="&#xd8;" horiz-adv-x="650" d="M326 -12Q233 -12 165 33T58 159T20 349Q20 459 58 540T164 665T326 710Q420 710 488 666T594 540T632 349Q632 240 595 159T489 33T326 -12ZM325 154Q365 154 389 178T425 246T437 349Q437 408 426 452T390 520T325
544Q285 544 261 520T226 452T215 349Q215 290 226 246T261 178T325 154ZM218 -82L68 -15L434 790L584 724L218 -82Z" />
<glyph unicode="&#xd9;" horiz-adv-x="650" d="M326 -12Q229 -12 162 21T60 116T25 263V698H254V253Q254 228 262 210T287 182T325 172Q348 172 363 181T387 209T396 253V698H625V263Q625 178 590 116T489 21T326 -12ZM433 752H269L151 925H348L433 752Z" />
<glyph unicode="&#xda;" horiz-adv-x="650" d="M326 -12Q229 -12 162 21T60 116T25 263V698H254V253Q254 228 262 210T287 182T325 172Q348 172 363 181T387 209T396 253V698H625V263Q625 178 590 116T489 21T326 -12ZM231 751L316 924H513L395 751H231Z" />
<glyph unicode="&#xdb;" horiz-adv-x="650" d="M326 -12Q229 -12 162 21T60 116T25 263V698H254V253Q254 228 262 210T287 182T325 172Q348 172 363 181T387 209T396 253V698H625V263Q625 178 590 116T489 21T326 -12ZM91 751L207 924H441L557 751H363L324 829L286
751H91Z" />
<glyph unicode="&#xdc;" horiz-adv-x="650" d="M326 -12Q229 -12 162 21T60 116T25 263V698H254V253Q254 228 262 210T287 182T325 172Q348 172 363 181T387 209T396 253V698H625V263Q625 178 590 116T489 21T326 -12ZM356 759V917H544V759H356ZM102 759V917H290V759H102Z"
/>
<glyph unicode="&#xdd;" horiz-adv-x="650" d="M207 0V281L11 698H236L292 573L327 421L362 574L417 698H638L436 281V0H207ZM232 751L317 924H514L396 751H232Z" />
<glyph unicode="&#xde;" horiz-adv-x="650" d="M206 115V299H326Q360 299 380 317T400 367Q400 395 380 412T326 430H206V614H335Q426 614 492 584T596 498T633 367Q633 291 594 235T483 147T316 115H206ZM42 0V699H271V0H42Z" />
<glyph unicode="&#xdf;" horiz-adv-x="650" d="M362 -11Q342 -11 322 -8T276 1V175Q288 170 301 166T340 161Q367 161 386 170T416 196T427 238Q427 273 402 292T330 311H276V454H312Q332 454 346 462T368 484T376 518Q376 535 368 547T345 567T309 574Q274 574
253 549T232 482V0H16V476Q16 550 51 610T154 705T321 741Q406 741 465 715T557 641T589 529Q589 468 546 427T441 370L438 411Q506 410 551 383T619 312T642 220Q642 153 610 101T516 19T362 -11Z" />
<glyph unicode="&#xe0;" horiz-adv-x="650" d="M387 0L381 73V374Q381 399 363 413T315 428Q284 428 266 417T245 383H39Q45 443 80 486T177 552T325 575Q405 575 466 550T563 477T598 364V0H387ZM236 -12Q185 -12 144 9T78 69T53 159Q53 248 116 299T293 350H399L396
216L301 213Q281 212 270 203T259 180Q259 165 270 156T301 147Q330 147 353 157T389 186L408 73Q381 31 340 10T236 -12ZM431 617H267L149 790H346L431 617Z" />
<glyph unicode="&#xe1;" horiz-adv-x="650" d="M387 0L381 73V374Q381 399 363 413T315 428Q284 428 266 417T245 383H39Q45 443 80 486T177 552T325 575Q405 575 466 550T563 477T598 364V0H387ZM236 -12Q185 -12 144 9T78 69T53 159Q53 248 116 299T293 350H399L396
216L301 213Q281 212 270 203T259 180Q259 165 270 156T301 147Q330 147 353 157T389 186L408 73Q381 31 340 10T236 -12ZM229 616L314 789H511L393 616H229Z" />
<glyph unicode="&#xe2;" horiz-adv-x="650" d="M387 0L381 73V374Q381 399 363 413T315 428Q284 428 266 417T245 383H39Q45 443 80 486T177 552T325 575Q405 575 466 550T563 477T598 364V0H387ZM236 -12Q185 -12 144 9T78 69T53 159Q53 248 116 299T293 350H399L396
216L301 213Q281 212 270 203T259 180Q259 165 270 156T301 147Q330 147 353 157T389 186L408 73Q381 31 340 10T236 -12ZM345 616L461 789H695L811 616H617L578 694L540 616H345Z" />
<glyph unicode="&#xe3;" horiz-adv-x="650" d="M387 0L381 73V374Q381 399 363 413T315 428Q284 428 266 417T245 383H39Q45 443 80 486T177 552T325 575Q405 575 466 550T563 477T598 364V0H387ZM236 -12Q185 -12 144 9T78 69T53 159Q53 248 116 299T293 350H399L396
216L301 213Q281 212 270 203T259 180Q259 165 270 156T301 147Q330 147 353 157T389 186L408 73Q381 31 340 10T236 -12ZM492 607L343 630Q345 706 378 750T475 795Q504 795 526 790T567 779T599 767T626 762Q640 762 649 772T660 801L812 779Q808 703 775 659T676
614Q642 614 614 623T564 640T523 649Q510 649 502 638T492 607Z" />
<glyph unicode="&#xe4;" horiz-adv-x="650" d="M387 0L381 73V374Q381 399 363 413T315 428Q284 428 266 417T245 383H39Q45 443 80 486T177 552T325 575Q405 575 466 550T563 477T598 364V0H387ZM236 -12Q185 -12 144 9T78 69T53 159Q53 248 116 299T293 350H399L396
216L301 213Q281 212 270 203T259 180Q259 165 270 156T301 147Q330 147 353 157T389 186L408 73Q381 31 340 10T236 -12ZM610 624V782H798V624H610ZM356 624V782H544V624H356Z" />
<glyph unicode="&#xe5;" horiz-adv-x="650" d="M387 0L381 73V374Q381 399 363 413T315 428Q284 428 266 417T245 383H39Q45 443 80 486T177 552T325 575Q405 575 466 550T563 477T598 364V0H387ZM236 -12Q185 -12 144 9T78 69T53 159Q53 248 116 299T293 350H399L396
216L301 213Q281 212 270 203T259 180Q259 165 270 156T301 147Q330 147 353 157T389 186L408 73Q381 31 340 10T236 -12ZM577 587Q517 587 481 621T444 711Q444 766 481 799T577 833Q638 833 675 800T712 711Q712 655 676 621T577 587ZM578 671Q596 671 607 682T618
711Q618 727 607 738T578 749Q560 749 549 738T538 711Q538 694 549 683T578 671Z" />
<glyph unicode="&#xe6;" horiz-adv-x="650" d="M229 119V390Q229 415 222 428T201 441Q192 441 184 435T172 415T165 384H8Q12 444 36 486T102 552T203 575Q286 575 333 520T380 367V119H229ZM171 -12Q101 -12 57 32T13 153Q13 207 38 248T108 313T211 336H241L239
217H219Q201 217 183 205T165 165Q165 147 174 137T196 126Q218 126 228 153T237 255L329 163Q323 73 279 31T171 -12ZM439 -12Q339 -12 284 66T229 280Q229 419 282 497T436 575Q547 575 597 491T637 257H359L362 366L467 368Q466 406 457 423T432 441Q408 441
396 402T383 279Q383 238 389 205T408 154T438 135Q455 135 465 149T478 195H632Q628 97 574 43T439 -12Z" />
<glyph unicode="&#xe7;" horiz-adv-x="650" d="M326 -12Q234 -12 170 23T72 123T38 281Q38 372 74 437T177 539T333 575Q419 575 481 544T577 456T612 323H397Q393 366 378 383T333 401Q310 401 292 388T264 349T254 281Q254 214 275 186T326 158Q346 158 361
166T387 191T400 233H615Q611 159 575 104T476 19T326 -12ZM319 -223Q300 -223 273 -219T217 -206V-129Q231 -133 255 -138T297 -143Q310 -143 320 -138T330 -125Q330 -118 323 -114T302 -109Q292 -109 282 -110T263 -115L238 -70L302 33L388 7L356 -40Q358 -40
360 -40T363 -40Q396 -40 420 -50T458 -78T471 -122Q471 -160 449 -182T393 -213T319 -223Z" />
<glyph unicode="&#xe8;" horiz-adv-x="650" d="M328 -12Q235 -12 169 23T67 123T32 281Q32 371 68 437T172 539T331 575Q489 575 559 488T616 240H198L200 364L397 365Q396 390 379 407T335 425Q283 425 266 388T248 271Q248 234 256 209T284 171T336 158Q358
158 378 169T402 198H615Q607 103 531 46T328 -12ZM441 617H277L159 790H356L441 617Z" />
<glyph unicode="&#xe9;" horiz-adv-x="650" d="M328 -12Q235 -12 169 23T67 123T32 281Q32 371 68 437T172 539T331 575Q489 575 559 488T616 240H198L200 364L397 365Q396 390 379 407T335 425Q283 425 266 388T248 271Q248 234 256 209T284 171T336 158Q358
158 378 169T402 198H615Q607 103 531 46T328 -12ZM239 616L324 789H521L403 616H239Z" />
<glyph unicode="&#xea;" horiz-adv-x="650" d="M328 -12Q235 -12 169 23T67 123T32 281Q32 371 68 437T172 539T331 575Q489 575 559 488T616 240H198L200 364L397 365Q396 390 379 407T335 425Q283 425 266 388T248 271Q248 234 256 209T284 171T336 158Q358
158 378 169T402 198H615Q607 103 531 46T328 -12ZM99 616L215 789H449L565 616H371L332 694L294 616H99Z" />
<glyph unicode="&#xeb;" horiz-adv-x="650" d="M328 -12Q235 -12 169 23T67 123T32 281Q32 371 68 437T172 539T331 575Q489 575 559 488T616 240H198L200 364L397 365Q396 390 379 407T335 425Q283 425 266 388T248 271Q248 234 256 209T284 171T336 158Q358
158 378 169T402 198H615Q607 103 531 46T328 -12ZM364 624V782H552V624H364ZM110 624V782H298V624H110Z" />
<glyph unicode="&#xec;" horiz-adv-x="650" d="M237 0V563H453V0H237ZM57 0V172H605V0H57ZM127 391V563H345V391H127ZM454 617H290L172 790H369L454 617Z" />
<glyph unicode="&#xed;" horiz-adv-x="650" d="M237 0V563H453V0H237ZM57 0V172H605V0H57ZM127 391V563H345V391H127ZM252 616L337 789H534L416 616H252Z" />
<glyph unicode="&#xee;" horiz-adv-x="650" d="M237 0V563H453V0H237ZM57 0V172H605V0H57ZM127 391V563H345V391H127ZM112 616L228 789H462L578 616H384L345 694L307 616H112Z" />
<glyph unicode="&#xef;" horiz-adv-x="650" d="M237 0V563H453V0H237ZM57 0V172H605V0H57ZM127 391V563H345V391H127ZM377 624V782H565V624H377ZM123 624V782H311V624H123Z" />
<glyph unicode="&#xf0;" horiz-adv-x="650" d="M147 740H391Q430 713 470 670T544 572T599 456T620 330Q620 223 584 147T480 29T315 -12Q226 -12 162 18T63 107T29 246Q29 325 63 379T157 462T294 490Q336 490 370 478T435 440T497 374L434 237Q426 272 413 296T379
333T330 346Q301 346 282 334T253 299T244 246Q244 215 252 194T278 161T320 150Q349 150 368 168T396 220T405 299Q405 374 392 431T350 537T271 634T147 740ZM215 513L185 619L565 723L597 617L215 513Z" />
<glyph unicode="&#xf1;" horiz-adv-x="650" d="M395 0V334Q395 360 385 376T349 392Q321 392 296 372T234 309L220 464Q264 523 312 549T416 575Q481 575 524 550T589 476T611 362V0H395ZM42 0V563H253L258 491V0H42ZM273 607L124 630Q126 706 159 750T256 795Q285
795 307 790T348 779T380 767T407 762Q421 762 430 772T441 801L593 779Q589 703 556 659T457 614Q423 614 395 623T345 640T304 649Q291 649 283 638T273 607Z" />
<glyph unicode="&#xf2;" horiz-adv-x="650" d="M325 -12Q235 -12 169 23T68 124T32 281Q32 373 67 439T169 540T325 575Q462 575 539 497T617 281Q617 190 582 125T482 24T325 -12ZM325 160Q360 160 381 191T402 281Q402 343 381 373T325 403Q290 403 269 373T247
281Q247 222 268 191T325 160ZM434 617H270L152 790H349L434 617Z" />
<glyph unicode="&#xf3;" horiz-adv-x="650" d="M325 -12Q235 -12 169 23T68 124T32 281Q32 373 67 439T169 540T325 575Q462 575 539 497T617 281Q617 190 582 125T482 24T325 -12ZM325 160Q360 160 381 191T402 281Q402 343 381 373T325 403Q290 403 269 373T247
281Q247 222 268 191T325 160ZM232 616L317 789H514L396 616H232Z" />
<glyph unicode="&#xf4;" horiz-adv-x="650" d="M325 -12Q235 -12 169 23T68 124T32 281Q32 373 67 439T169 540T325 575Q462 575 539 497T617 281Q617 190 582 125T482 24T325 -12ZM325 160Q360 160 381 191T402 281Q402 343 381 373T325 403Q290 403 269 373T247
281Q247 222 268 191T325 160ZM92 616L208 789H442L558 616H364L325 694L287 616H92Z" />
<glyph unicode="&#xf5;" horiz-adv-x="650" d="M325 -12Q235 -12 169 23T68 124T32 281Q32 373 67 439T169 540T325 575Q462 575 539 497T617 281Q617 190 582 125T482 24T325 -12ZM325 160Q360 160 381 191T402 281Q402 343 381 373T325 403Q290 403 269 373T247
281Q247 222 268 191T325 160ZM495 607L346 630Q348 706 381 750T478 795Q507 795 529 790T570 779T602 767T629 762Q643 762 652 772T663 801L815 779Q811 703 778 659T679 614Q645 614 617 623T567 640T526 649Q513 649 505 638T495 607Z" />
<glyph unicode="&#xf6;" horiz-adv-x="650" d="M325 -12Q235 -12 169 23T68 124T32 281Q32 373 67 439T169 540T325 575Q462 575 539 497T617 281Q617 190 582 125T482 24T325 -12ZM325 160Q360 160 381 191T402 281Q402 343 381 373T325 403Q290 403 269 373T247
281Q247 222 268 191T325 160ZM613 624V782H801V624H613ZM359 624V782H547V624H359Z" />
<glyph unicode="&#xf7;" horiz-adv-x="650" d="M68 213V397H582V213H68ZM225 251V446H426V251H225ZM225 430V625H426V430H225Z" />
<glyph unicode="&#xf8;" horiz-adv-x="650" d="M189 -88L81 -33L460 644L568 590L189 -88ZM325 -12Q232 -12 166 23T63 124T27 281Q27 373 63 439T165 540T325 576Q418 576 484 541T586 439T622 281Q622 190 587 125T485 24T325 -12ZM325 148Q367 148 391 182T415
281Q415 349 391 382T325 416Q283 416 259 383T234 281Q234 216 258 182T325 148Z" />
<glyph unicode="&#xf9;" horiz-adv-x="650" d="M255 563V229Q255 203 265 187T301 171Q329 171 354 191T416 254L430 99Q386 40 338 14T234 -12Q169 -12 126 13T61 87T39 201V563H255ZM608 563V0H397L392 72V563H608ZM437 616H273L155 789H352L437 616Z" />
<glyph unicode="&#xfa;" horiz-adv-x="650" d="M255 563V229Q255 203 265 187T301 171Q329 171 354 191T416 254L430 99Q386 40 338 14T234 -12Q169 -12 126 13T61 87T39 201V563H255ZM608 563V0H397L392 72V563H608ZM235 871L320 1044H517L399 871H235Z" />
<glyph unicode="&#xfb;" horiz-adv-x="650" d="M255 563V229Q255 203 265 187T301 171Q329 171 354 191T416 254L430 99Q386 40 338 14T234 -12Q169 -12 126 13T61 87T39 201V563H255ZM608 563V0H397L392 72V563H608ZM95 871L211 1044H445L561 871H367L328 949L290
871H95Z" />
<glyph unicode="&#xfc;" horiz-adv-x="650" d="M255 563V229Q255 203 265 187T301 171Q329 171 354 191T416 254L430 99Q386 40 338 14T234 -12Q169 -12 126 13T61 87T39 201V563H255ZM608 563V0H397L392 72V563H608ZM360 879V1037H548V879H360ZM106 879V1037H294V879H106Z"
/>
<glyph unicode="&#xfd;" horiz-adv-x="650" d="M288 413L325 269L364 412L417 563H640L415 -1Q388 -68 343 -109T241 -170T118 -190H12V-16H100Q131 -16 150 -3T182 29T201 63L205 71L11 563H234L288 413ZM237 616L322 789H519L401 616H237Z" />
<glyph unicode="&#xfe;" horiz-adv-x="650" d="M396 576Q467 576 520 539T603 435T633 281Q633 195 604 129T521 26T396 -12Q355 -12 317 3T250 44V-178H34V741H250V520Q279 546 317 561T396 576ZM329 163Q356 163 376 178T407 219T418 281Q418 317 407 344T376
386T329 401Q303 401 282 384T250 336V228Q260 198 281 181T329 163Z" />
<glyph unicode="&#xff;" horiz-adv-x="650" d="M288 413L325 269L364 412L417 563H640L415 -1Q388 -68 343 -109T241 -170T118 -190H12V-16H100Q131 -16 150 -3T182 29T201 63L205 71L11 563H234L288 413ZM362 624V782H550V624H362ZM108 624V782H296V624H108Z" />
<glyph unicode="&#x2013;" horiz-adv-x="650" d="M37 213V398H613V213H37Z" />
<glyph unicode="&#x2014;" horiz-adv-x="1300" d="M74 212V397H1226V212H74Z" />
<glyph unicode="&#x2018;" horiz-adv-x="650" d="M415 609V414H214V609L288 779H463L404 691L308 609H415Z" />
<glyph unicode="&#x2019;" horiz-adv-x="650" d="M225 582V777H426V582L352 412H177L236 500L332 582H225Z" />
<glyph unicode="&#x201a;" horiz-adv-x="650" d="M244 0V195H445V0L371 -170H196L255 -82L351 0H244Z" />
<glyph unicode="&#x201c;" horiz-adv-x="650" d="M275 609V414H74V609L148 779H323L264 691L168 609H275ZM550 609V414H349V609L423 779H598L539 691L443 609H550Z" />
<glyph unicode="&#x201d;" horiz-adv-x="650" d="M375 583V778H576V583L502 413H327L386 501L482 583H375ZM100 583V778H301V583L227 413H52L111 501L207 583H100Z" />
<glyph unicode="&#x201e;" horiz-adv-x="650" d="M375 0V195H576V0L502 -170H327L386 -82L482 0H375ZM100 0V195H301V0L227 -170H52L111 -82L207 0H100Z" />
<glyph unicode="&#x2022;" horiz-adv-x="650" d="M168 155V453H481V155H168Z" />
<glyph unicode="&#x2039;" horiz-adv-x="650" d="M295 58L150 278L295 496H497L346 278L497 58H295Z" />
<glyph unicode="&#x203a;" horiz-adv-x="650" d="M355 58H153L304 278L153 496H355L500 278L355 58Z" />
</font>
</defs>
</svg>
